<svg width="80" height="40" viewBox="0 0 80 40" fill="none" xmlns="http://www.w3.org/2000/svg">
<path d="M1.33537 3.14215C1.33537 2.47182 1.25138 1.96908 1.0834 1.63392C0.932222 1.282 0.755844 1.04738 0.554269 0.930076C0.352694 0.812769 0.251907 0.770874 0.251907 0.804391H4.25821C4.25821 0.770874 4.15742 0.812769 3.95584 0.930076C3.75427 1.04738 3.56949 1.282 3.40151 1.63392C3.23353 1.96908 3.14954 2.47182 3.14954 3.14215V17.0933H7.28183C8.03773 17.0933 8.68445 16.9425 9.22198 16.6408C9.77632 16.3224 10.1711 15.9202 10.4062 15.4342L9.95269 18.0988H0.251907C0.251907 18.1491 0.352694 18.1155 0.554269 17.9982C0.755844 17.8642 0.932222 17.6128 1.0834 17.2441C1.25138 16.8587 1.33537 16.3057 1.33537 15.5851V3.14215Z" fill="black"/>
<path d="M12.998 18.0988C12.998 18.1491 13.0988 18.1155 13.3003 17.9982C13.5019 17.8642 13.6783 17.6128 13.8295 17.2441C13.9974 16.8587 14.0814 16.3057 14.0814 15.5851V3.2427C14.0814 2.55562 13.9974 2.03611 13.8295 1.68419C13.6783 1.31551 13.5019 1.06414 13.3003 0.930076C13.0988 0.796011 12.998 0.754116 12.998 0.804391H22.1192V3.31811C21.8169 2.31262 20.9098 1.80988 19.398 1.80988H15.8956V8.94884H20.2295C20.5654 8.94884 20.851 8.89857 21.0862 8.79802C21.3213 8.68071 21.4977 8.56341 21.6153 8.4461C21.7329 8.32879 21.8001 8.25338 21.8169 8.21987V10.6582C21.8001 10.6247 21.7329 10.5492 21.6153 10.4319C21.4977 10.3146 21.3213 10.2057 21.0862 10.1052C20.8678 10.0046 20.5906 9.95433 20.2547 9.95433H15.8956V17.0933H19.8263C20.5822 17.0933 21.2289 16.9425 21.7665 16.6408C22.3208 16.3224 22.7156 15.9202 22.9507 15.4342L22.4972 18.0988H12.998Z" fill="black"/>
<path d="M34.7257 18.3753C33.1299 18.3753 31.6517 18.0401 30.2911 17.3698C28.9304 16.6995 27.8386 15.694 27.0155 14.3533C26.1924 13.0127 25.7808 11.3788 25.7808 9.45159C25.7808 7.74226 26.1672 6.20889 26.9399 4.85148C27.7294 3.49407 28.8297 2.42993 30.2407 1.65905C31.6685 0.888181 33.3063 0.502744 35.1541 0.502744C36.3299 0.502744 37.3882 0.636809 38.3289 0.90494C39.2864 1.17307 40.0423 1.46634 40.5966 1.78474V4.57497C40.0759 3.67003 39.2948 2.94105 38.2533 2.38803C37.2286 1.83502 36.1787 1.55851 35.1037 1.55851C33.6087 1.55851 32.3068 1.87691 31.1982 2.51372C30.1063 3.13377 29.2664 4.02195 28.6785 5.17826C28.0906 6.33458 27.7966 7.69198 27.7966 9.25049C27.7966 10.9431 28.1325 12.3926 28.8045 13.5992C29.4932 14.8058 30.4003 15.7108 31.5257 16.314C32.6512 16.9173 33.8774 17.219 35.2045 17.219C35.8092 17.219 36.4307 17.152 37.069 17.0179C37.7241 16.8671 38.3289 16.6576 38.8832 16.3895V12.2418C38.8832 11.7223 38.7992 11.3201 38.6312 11.0352C38.4633 10.7336 38.2785 10.5241 38.0769 10.4068C37.8753 10.2727 37.7745 10.2225 37.7745 10.256H41.806C41.806 10.2225 41.7052 10.256 41.5037 10.3565C41.3021 10.4571 41.1173 10.6498 40.9493 10.9347C40.7814 11.2028 40.6974 11.5883 40.6974 12.091V16.666C39.8071 17.219 38.8412 17.6463 37.7997 17.948C36.7751 18.2329 35.7504 18.3753 34.7257 18.3753Z" fill="black"/>
<path d="M48.4316 11.3872L46.819 15.384C46.5671 16.004 46.4411 16.5151 46.4411 16.9173C46.4411 17.4704 46.693 17.8642 47.197 18.0988H43.5938C43.7618 18.0988 44.0054 17.9312 44.3245 17.596C44.6437 17.2609 45.0133 16.5989 45.4332 15.6102L52.0096 0L58.5356 15.6856C58.9051 16.5906 59.2579 17.2106 59.5938 17.5458C59.9466 17.8809 60.2238 18.0653 60.4253 18.0988H56.2427C56.6626 17.8977 56.8726 17.5877 56.8726 17.1687C56.8726 16.8168 56.7382 16.314 56.4694 15.6605L54.7056 11.3872H48.4316ZM54.3025 10.3565L51.556 3.64489L48.86 10.3565H54.3025Z" fill="black"/>
<path d="M67.1901 18.4004C66.3166 18.4004 65.4767 18.2831 64.6704 18.0485C63.8641 17.7971 63.1418 17.4536 62.5035 17.0179V13.9763C62.9402 15.0991 63.6037 15.9537 64.494 16.5403C65.4011 17.1101 66.3418 17.3949 67.3161 17.3949C68.2904 17.3949 69.105 17.0765 69.7602 16.4397C70.4153 15.7862 70.7428 14.9818 70.7428 14.0266C70.7428 13.3897 70.6085 12.8451 70.3397 12.3926C70.0877 11.9402 69.6762 11.5212 69.105 11.1358C68.5339 10.7336 67.7276 10.2895 66.6862 9.80351C65.2247 9.13318 64.1581 8.43772 63.4862 7.71712C62.831 6.97976 62.5035 6.09158 62.5035 5.05258C62.5035 4.1644 62.7135 3.37676 63.1334 2.68968C63.5701 1.98584 64.1497 1.44958 64.872 1.0809C65.6111 0.695462 66.4174 0.502744 67.2909 0.502744C68.0468 0.502744 68.7859 0.611672 69.5082 0.829527C70.2305 1.03063 70.9024 1.32389 71.5239 1.70933V4.42415C71.1208 3.50245 70.5077 2.79023 69.6846 2.28749C68.8783 1.76798 68.0552 1.50823 67.2153 1.50823C66.2578 1.50823 65.4851 1.81826 64.8972 2.43831C64.3092 3.05836 64.0153 3.79572 64.0153 4.65038C64.0153 5.27043 64.1917 5.80669 64.5444 6.25916C64.8972 6.69487 65.3255 7.06355 65.8295 7.3652C66.3502 7.66685 67.0725 8.03553 67.9964 8.47124C68.9371 8.92371 69.7098 9.34266 70.3145 9.7281C70.9192 10.1135 71.4232 10.6163 71.8263 11.2363C72.2295 11.8564 72.431 12.6105 72.431 13.4987C72.431 14.5042 72.1875 15.3756 71.7003 16.1129C71.23 16.8503 70.5917 17.4201 69.7854 17.8223C68.9959 18.2077 68.1308 18.4004 67.1901 18.4004Z" fill="black"/>
<path d="M75.8911 18.0988C75.8911 18.1491 75.9919 18.1155 76.1934 17.9982C76.395 17.8642 76.5798 17.6296 76.7478 17.2944C76.9157 16.9425 76.9997 16.4314 76.9997 15.761V3.14215C76.9997 2.47182 76.9157 1.96908 76.7478 1.63392C76.5966 1.282 76.4202 1.04738 76.2186 0.930076C76.0171 0.812769 75.9163 0.770874 75.9163 0.804391H79.9226C79.9226 0.770874 79.8218 0.812769 79.6202 0.930076C79.4186 1.04738 79.2339 1.282 79.0659 1.63392C78.8979 1.96908 78.8139 2.47182 78.8139 3.14215V15.761C78.8139 16.4314 78.8979 16.9425 79.0659 17.2944C79.2339 17.6296 79.4186 17.8558 79.6202 17.9731C79.8218 18.0904 79.9226 18.1323 79.9226 18.0988H75.8911Z" fill="black"/>
<path d="M18.7187 39.2183C18.7187 39.3841 18.7334 39.5055 18.7628 39.5825C18.7981 39.6536 18.8598 39.7039 18.948 39.7335C19.0362 39.7572 19.1744 39.769 19.3625 39.769H20.1121C20.4825 39.769 20.7882 39.6595 21.0293 39.4404C21.2762 39.2153 21.4408 38.9133 21.5231 38.5343C21.5231 38.5165 21.5378 38.5106 21.5672 38.5165C21.6025 38.5165 21.6202 38.5254 21.6202 38.5432C21.5672 39.0643 21.5408 39.4966 21.5408 39.8401C21.5408 39.8875 21.529 39.923 21.5055 39.9467C21.4879 39.9645 21.4555 39.9734 21.4085 39.9734H17.2989C17.2871 39.9734 17.2813 39.9556 17.2813 39.9201C17.2813 39.8845 17.2871 39.8668 17.2989 39.8668C17.5105 39.8668 17.6663 39.852 17.7663 39.8223C17.8662 39.7927 17.9339 39.7365 17.9691 39.6536C18.0044 39.5647 18.022 39.4315 18.022 39.2538V35.141C18.022 34.9634 18.0044 34.8331 17.9691 34.7502C17.9339 34.6673 17.8662 34.611 17.7663 34.5814C17.6663 34.5459 17.5105 34.5281 17.2989 34.5281C17.2871 34.5281 17.2813 34.5103 17.2813 34.4748C17.2813 34.4393 17.2871 34.4215 17.2989 34.4215L17.7398 34.4304C17.9985 34.4422 18.2072 34.4481 18.366 34.4481C18.5247 34.4481 18.7334 34.4422 18.9921 34.4304L19.4331 34.4215C19.4448 34.4215 19.4507 34.4393 19.4507 34.4748C19.4507 34.5103 19.4448 34.5281 19.4331 34.5281C19.2214 34.5281 19.0656 34.5459 18.9657 34.5814C18.8716 34.611 18.8069 34.6702 18.7717 34.7591C18.7364 34.842 18.7187 34.9722 18.7187 35.1499V39.2183Z" fill="#BF936A"/>
<path d="M24.3903 36.9176H26.2069L26.2687 37.1219H24.258L24.3903 36.9176ZM28.5704 39.8668C28.5998 39.8668 28.6145 39.8845 28.6145 39.9201C28.6145 39.9556 28.5998 39.9734 28.5704 39.9734C28.4587 39.9734 28.2853 39.9674 28.0501 39.9556C27.8032 39.9437 27.6268 39.9378 27.521 39.9378C27.3857 39.9378 27.2182 39.9437 27.0183 39.9556C26.8184 39.9674 26.6685 39.9734 26.5685 39.9734C26.545 39.9734 26.5332 39.9556 26.5332 39.9201C26.5332 39.8845 26.545 39.8668 26.5685 39.8668C26.7684 39.8668 26.9125 39.849 27.0006 39.8135C27.0888 39.772 27.1329 39.7009 27.1329 39.6003C27.1329 39.4996 27.0888 39.3604 27.0006 39.1828L25.1046 35.2121L25.3868 34.7857L23.6671 38.8008C23.5848 39.0021 23.5436 39.168 23.5436 39.2982C23.5436 39.4878 23.6171 39.6299 23.7641 39.7246C23.9111 39.8194 24.1227 39.8668 24.3991 39.8668C24.4285 39.8668 24.4432 39.8845 24.4432 39.9201C24.4432 39.9556 24.4285 39.9734 24.3991 39.9734C24.2932 39.9734 24.1404 39.9674 23.9405 39.9556C23.7171 39.9437 23.5231 39.9378 23.3584 39.9378C23.2056 39.9378 23.0233 39.9437 22.8117 39.9556C22.6235 39.9674 22.4707 39.9734 22.3531 39.9734C22.3296 39.9734 22.3178 39.9556 22.3178 39.9201C22.3178 39.8845 22.3296 39.8668 22.3531 39.8668C22.5177 39.8668 22.6559 39.8342 22.7676 39.769C22.8852 39.7039 22.9969 39.5914 23.1027 39.4315C23.2085 39.2716 23.329 39.0347 23.4643 38.7209L25.3427 34.3593C25.3486 34.3415 25.3692 34.3327 25.4044 34.3327C25.4397 34.3267 25.4603 34.3356 25.4662 34.3593L27.5827 38.7564C27.7885 39.1887 27.959 39.4818 28.0942 39.6358C28.2353 39.7898 28.394 39.8668 28.5704 39.8668Z" fill="#BF936A"/>
<path d="M31.6306 39.9645C31.6247 39.9882 31.5924 40 31.5336 40C31.4748 40 31.4424 39.9882 31.4366 39.9645L29.223 35.1588C29.1113 34.9101 29.0055 34.7442 28.9055 34.6613C28.8115 34.5725 28.6762 34.5281 28.4999 34.5281C28.4822 34.5281 28.4734 34.5103 28.4734 34.4748C28.4734 34.4393 28.4822 34.4215 28.4999 34.4215L28.7732 34.4304C28.9261 34.4422 29.0701 34.4481 29.2054 34.4481C29.4699 34.4481 29.7316 34.4422 29.9903 34.4304C30.0726 34.4245 30.1843 34.4215 30.3254 34.4215C30.343 34.4215 30.3518 34.4393 30.3518 34.4748C30.3518 34.5103 30.343 34.5281 30.3254 34.5281C30.1549 34.5281 30.0314 34.5459 29.955 34.5814C29.8785 34.6169 29.8403 34.685 29.8403 34.7857C29.8403 34.8686 29.8815 35.0019 29.9638 35.1854L31.8334 39.2094L31.4983 39.698L32.6095 36.8554L32.7506 37.0597L31.6306 39.9645ZM36.6838 34.4215C36.7014 34.4215 36.7103 34.4393 36.7103 34.4748C36.7103 34.5103 36.7014 34.5281 36.6838 34.5281C36.2664 34.5281 35.9489 34.7975 35.7314 35.3364L33.9323 39.9645C33.9264 39.9882 33.8941 40 33.8353 40C33.7765 40 33.7442 39.9882 33.7383 39.9645L31.5247 35.1588C31.4248 34.9397 31.3219 34.7798 31.2161 34.6791C31.1161 34.5784 30.9927 34.5281 30.8457 34.5281C30.828 34.5281 30.8192 34.5103 30.8192 34.4748C30.8192 34.4393 30.828 34.4215 30.8457 34.4215L31.1191 34.4304C31.2602 34.4422 31.3895 34.4481 31.5071 34.4481C31.7305 34.4481 31.9363 34.4422 32.1244 34.4304C32.1832 34.4245 32.2626 34.4215 32.3625 34.4215C32.3802 34.4215 32.389 34.4393 32.389 34.4748C32.389 34.5103 32.3802 34.5281 32.3625 34.5281C32.2626 34.5281 32.1891 34.5399 32.1421 34.5636C32.1009 34.5814 32.0803 34.6169 32.0803 34.6702C32.0803 34.7531 32.1421 34.9249 32.2655 35.1854L34.1351 39.2094L33.8 39.698L35.5021 35.3364C35.555 35.1943 35.5814 35.0729 35.5814 34.9722C35.5814 34.8301 35.5285 34.7206 35.4227 34.6436C35.3227 34.5666 35.1728 34.5281 34.9729 34.5281C34.9553 34.5281 34.9465 34.5103 34.9465 34.4748C34.9465 34.4393 34.9553 34.4215 34.9729 34.4215L35.3521 34.4304C35.552 34.4422 35.7343 34.4481 35.8989 34.4481C36.0224 34.4481 36.1605 34.4422 36.3134 34.4304L36.6838 34.4215ZM33.2621 35.292C33.3444 35.0788 33.3855 34.916 33.3855 34.8035C33.3855 34.6199 33.2768 34.5281 33.0592 34.5281C33.0475 34.5281 33.0416 34.5103 33.0416 34.4748C33.0416 34.4393 33.0475 34.4215 33.0592 34.4215L33.2356 34.4304C33.3532 34.4422 33.4884 34.4481 33.6413 34.4481C33.7471 34.4481 33.8764 34.4422 34.0293 34.4304L34.3821 34.4215C34.3938 34.4215 34.3997 34.4393 34.3997 34.4748C34.3997 34.5103 34.3938 34.5281 34.3821 34.5281C34.1822 34.5281 34.0087 34.5903 33.8617 34.7146C33.7148 34.839 33.5854 35.0463 33.4737 35.3364L32.7947 37.0597L32.6536 36.8554L33.2621 35.292Z" fill="#BF936A"/>
<path d="M40.3011 39.9734C40.2835 39.9734 40.2747 39.9556 40.2747 39.9201C40.2747 39.8845 40.2835 39.8668 40.3011 39.8668C40.5187 39.8668 40.6774 39.852 40.7773 39.8223C40.8773 39.7927 40.9449 39.7365 40.9802 39.6536C41.0213 39.5647 41.0419 39.4315 41.0419 39.2538V35.141C41.0419 34.9634 41.0243 34.8331 40.989 34.7502C40.9537 34.6673 40.8861 34.611 40.7862 34.5814C40.6921 34.5459 40.5392 34.5281 40.3276 34.5281C40.3099 34.5281 40.3011 34.5103 40.3011 34.4748C40.3011 34.4393 40.3099 34.4215 40.3276 34.4215H43.9257C43.9845 34.4215 44.0139 34.4481 44.0139 34.5014L44.0315 35.6207C44.0315 35.6385 44.0139 35.6503 43.9786 35.6562C43.9492 35.6562 43.9316 35.6473 43.9257 35.6296C43.8845 35.3039 43.7699 35.0551 43.5818 34.8834C43.3936 34.7117 43.1467 34.6258 42.841 34.6258H42.3912C42.1384 34.6258 41.965 34.6643 41.8709 34.7413C41.7827 34.8123 41.7386 34.9486 41.7386 35.1499V39.2183C41.7386 39.4078 41.7621 39.547 41.8092 39.6358C41.8621 39.7187 41.9591 39.7779 42.1002 39.8135C42.2413 39.849 42.4647 39.8668 42.7704 39.8668C42.7822 39.8668 42.7881 39.8845 42.7881 39.9201C42.7881 39.9556 42.7822 39.9734 42.7704 39.9734C42.5294 39.9734 42.3412 39.9704 42.206 39.9645L41.377 39.9556L40.7597 39.9645C40.648 39.9704 40.4951 39.9734 40.3011 39.9734ZM43.4847 38.0369C43.4847 37.7822 43.4083 37.5957 43.2555 37.4772C43.1026 37.3529 42.8586 37.2907 42.5235 37.2907H41.4035V37.0864H42.5499C42.8674 37.0864 43.0997 37.0331 43.2466 36.9265C43.3995 36.8199 43.4759 36.66 43.4759 36.4468C43.4759 36.435 43.4936 36.4291 43.5288 36.4291C43.5641 36.4291 43.5818 36.435 43.5818 36.4468L43.5729 37.193C43.5729 37.3706 43.5759 37.5039 43.5818 37.5927L43.5906 38.0369C43.5906 38.0487 43.5729 38.0546 43.5377 38.0546C43.5024 38.0546 43.4847 38.0487 43.4847 38.0369Z" fill="#BF936A"/>
<path d="M46.9214 39.2538C46.9214 39.4374 46.9361 39.5707 46.9655 39.6536C47.0008 39.7365 47.0655 39.7927 47.1595 39.8223C47.2595 39.852 47.4182 39.8668 47.6358 39.8668C47.6475 39.8668 47.6534 39.8845 47.6534 39.9201C47.6534 39.9556 47.6475 39.9734 47.6358 39.9734C47.4476 39.9734 47.3006 39.9704 47.1948 39.9645L46.5599 39.9556L45.9425 39.9645C45.8308 39.9704 45.678 39.9734 45.484 39.9734C45.4722 39.9734 45.4663 39.9556 45.4663 39.9201C45.4663 39.8845 45.4722 39.8668 45.484 39.8668C45.6956 39.8668 45.8514 39.852 45.9514 39.8223C46.0513 39.7927 46.1189 39.7365 46.1542 39.6536C46.1953 39.5647 46.2159 39.4315 46.2159 39.2538V35.141C46.2159 34.9634 46.1953 34.8331 46.1542 34.7502C46.1189 34.6673 46.0513 34.611 45.9514 34.5814C45.8514 34.5459 45.6956 34.5281 45.484 34.5281C45.4722 34.5281 45.4663 34.5103 45.4663 34.4748C45.4663 34.4393 45.4722 34.4215 45.484 34.4215L45.9425 34.4304C46.2012 34.4422 46.407 34.4481 46.5599 34.4481C46.7304 34.4481 46.945 34.4422 47.2036 34.4304L47.6358 34.4215C47.6475 34.4215 47.6534 34.4393 47.6534 34.4748C47.6534 34.5103 47.6475 34.5281 47.6358 34.5281C47.4241 34.5281 47.2683 34.5459 47.1684 34.5814C47.0743 34.6169 47.0096 34.6791 46.9743 34.7679C46.9391 34.8508 46.9214 34.9811 46.9214 35.1588V39.2538Z" fill="#BF936A"/>
<path d="M53.4823 39.9734C53.3354 39.9734 53.0649 39.7157 52.671 39.2005C52.2771 38.6853 51.795 37.9658 51.2247 37.042L51.8156 36.8465C52.3153 37.6164 52.7327 38.2175 53.0679 38.6498C53.4089 39.0762 53.7116 39.3871 53.9762 39.5825C54.2408 39.772 54.4965 39.8668 54.7435 39.8668C54.7611 39.8668 54.7699 39.8845 54.7699 39.9201C54.7699 39.9556 54.7611 39.9734 54.7435 39.9734H53.4823ZM51.1983 34.3948C51.698 34.3948 52.0831 34.4955 52.3535 34.6969C52.624 34.8923 52.7592 35.1647 52.7592 35.5141C52.7592 35.8043 52.671 36.0767 52.4946 36.3313C52.3241 36.586 52.0948 36.7903 51.8068 36.9443C51.5187 37.0982 51.213 37.1752 50.8896 37.1752C50.7661 37.1752 50.6221 37.1693 50.4575 37.1575V39.2538C50.4575 39.4315 50.4751 39.5647 50.5104 39.6536C50.5457 39.7365 50.6103 39.7927 50.7044 39.8223C50.8043 39.852 50.9601 39.8668 51.1718 39.8668C51.1894 39.8668 51.1983 39.8845 51.1983 39.9201C51.1983 39.9556 51.1894 39.9734 51.1718 39.9734C50.9895 39.9734 50.8455 39.9704 50.7397 39.9645L50.1047 39.9556L49.4874 39.9645C49.3757 39.9704 49.2258 39.9734 49.0376 39.9734C49.02 39.9734 49.0112 39.9556 49.0112 39.9201C49.0112 39.8845 49.02 39.8668 49.0376 39.8668C49.2493 39.8668 49.4051 39.852 49.505 39.8223C49.605 39.7927 49.6726 39.7365 49.7079 39.6536C49.7431 39.5647 49.7608 39.4315 49.7608 39.2538V35.141C49.7608 34.9634 49.7431 34.8331 49.7079 34.7502C49.6726 34.6673 49.605 34.611 49.505 34.5814C49.411 34.5459 49.2581 34.5281 49.0464 34.5281C49.0347 34.5281 49.0288 34.5103 49.0288 34.4748C49.0288 34.4393 49.0347 34.4215 49.0464 34.4215L49.4874 34.4304C49.7461 34.4422 49.9519 34.4481 50.1047 34.4481C50.2105 34.4481 50.3105 34.4452 50.4046 34.4393C50.4986 34.4333 50.5809 34.4274 50.6515 34.4215C50.8455 34.4037 51.0278 34.3948 51.1983 34.3948ZM52.0272 35.8339C52.0272 35.3661 51.939 35.0344 51.7627 34.839C51.5863 34.6436 51.3423 34.5459 51.0307 34.5459C50.8778 34.5459 50.7602 34.5607 50.6779 34.5903C50.6015 34.6199 50.5457 34.6791 50.5104 34.7679C50.4751 34.8508 50.4575 34.9811 50.4575 35.1588V36.9265C50.6809 36.9502 50.8543 36.962 50.9778 36.962C51.3541 36.962 51.6216 36.8791 51.7803 36.7133C51.9449 36.5416 52.0272 36.2484 52.0272 35.8339Z" fill="#BF936A"/>
<path d="M56.4161 34.6258L56.6365 34.6436L56.5484 38.9607C56.5425 39.2686 56.5983 39.4966 56.7159 39.6447C56.8335 39.7927 57.0246 39.8668 57.2892 39.8668C57.3068 39.8668 57.3156 39.8845 57.3156 39.9201C57.3156 39.9556 57.3068 39.9734 57.2892 39.9734C57.1304 39.9734 57.0069 39.9704 56.9188 39.9645L56.4337 39.9556L55.9487 39.9645C55.8664 39.9704 55.7458 39.9734 55.5871 39.9734C55.5753 39.9734 55.5695 39.9556 55.5695 39.9201C55.5695 39.8845 55.5753 39.8668 55.5871 39.8668C56.0751 39.8668 56.322 39.5647 56.3279 38.9607L56.4161 34.6258ZM62.5011 39.8668C62.5129 39.8668 62.5188 39.8845 62.5188 39.9201C62.5188 39.9556 62.5129 39.9734 62.5011 39.9734C62.3071 39.9734 62.1542 39.9704 62.0425 39.9645L61.4252 39.9556L60.8343 39.9645C60.7344 39.9704 60.5962 39.9734 60.4199 39.9734C60.4081 39.9734 60.4022 39.9556 60.4022 39.9201C60.4022 39.8845 60.4081 39.8668 60.4199 39.8668C60.6198 39.8668 60.7667 39.852 60.8608 39.8223C60.9549 39.7868 61.0166 39.7276 61.046 39.6447C61.0754 39.5618 61.0842 39.4315 61.0725 39.2538L60.8961 35.07L61.24 34.5725L58.9559 39.9112C58.9442 39.9349 58.9206 39.9467 58.8854 39.9467C58.8501 39.9467 58.8266 39.9349 58.8148 39.9112L56.5131 35.1588C56.4073 34.9397 56.2838 34.7798 56.1427 34.6791C56.0016 34.5784 55.837 34.5281 55.6488 34.5281C55.6371 34.5281 55.6312 34.5103 55.6312 34.4748C55.6312 34.4393 55.6371 34.4215 55.6488 34.4215L56.0016 34.4304C56.0721 34.4363 56.1633 34.4393 56.275 34.4393C56.4043 34.4393 56.5101 34.4363 56.5925 34.4304C56.6748 34.4245 56.7394 34.4215 56.7865 34.4215C56.8629 34.4215 56.9246 34.4481 56.9717 34.5014C57.0187 34.5547 57.0922 34.6821 57.1921 34.8834L59.194 38.9785L58.8677 39.547L60.9931 34.6436C61.0519 34.4955 61.1401 34.4215 61.2576 34.4215C61.2929 34.4215 61.34 34.4245 61.3988 34.4304C61.4576 34.4363 61.534 34.4393 61.628 34.4393L62.0778 34.4304C62.1484 34.4245 62.2513 34.4215 62.3865 34.4215C62.3982 34.4215 62.4041 34.4393 62.4041 34.4748C62.4041 34.5103 62.3982 34.5281 62.3865 34.5281C62.0925 34.5281 61.8838 34.5755 61.7603 34.6702C61.6369 34.765 61.5781 34.9308 61.584 35.1677L61.7691 39.2538C61.7809 39.4374 61.8044 39.5707 61.8397 39.6536C61.875 39.7365 61.9396 39.7927 62.0337 39.8223C62.1337 39.852 62.2895 39.8668 62.5011 39.8668Z" fill="#BF936A"/>
<path d="M79.9506 21.9919C79.9218 21.8166 79.8551 21.6491 79.7547 21.5008C79.6544 21.3525 79.5228 21.2267 79.3686 21.1318C79.2145 21.037 79.0413 20.9751 78.8607 20.9505C78.6801 20.9259 78.4962 20.939 78.3213 20.989C77.5653 21.1763 77.1449 22.0681 76.3889 22.2586C76.1279 22.3698 75.8529 22.4467 75.571 22.4871C75.582 22.5016 75.594 22.5154 75.6068 22.5283C74.5331 22.552 73.4779 22.805 72.5156 23.2696C71.5533 23.7341 70.7075 24.3988 70.0379 25.2166L47.9577 25.2611C46.3119 25.0781 44.6452 25.2895 43.1024 25.8768C41.8362 26.3675 40.7649 27.2408 40.0458 28.3683C39.3146 27.232 38.2234 26.3585 36.9371 25.88C35.643 25.3961 34.2573 25.1883 32.8737 25.2706H9.73767C9.05935 24.5495 8.2368 23.9712 7.32059 23.5711C6.40438 23.171 5.41385 22.9577 4.40987 22.9441L4.4392 22.906C4.15645 22.8498 3.87779 22.7756 3.605 22.6839C2.849 22.5061 2.41561 21.6206 1.64984 21.4429C1.47493 21.3966 1.29193 21.3869 1.11289 21.4144C0.933853 21.4419 0.76283 21.5061 0.611074 21.6026C0.459319 21.6992 0.33027 21.8259 0.23242 21.9745C0.134569 22.1231 0.0701347 22.2903 0.0433552 22.4649C-0.178229 23.3631 0.486524 23.9122 1.1969 24.0804C1.67858 24.2095 2.18615 24.2166 2.67146 24.1011C3.15677 23.9856 3.60374 23.7512 3.96996 23.4202C4.0233 23.4054 4.07779 23.3948 4.13289 23.3885C4.97517 23.3658 5.81457 23.4938 6.60942 23.7662C7.48598 26.8036 8.90998 28.7492 10.9662 29.7077C12.1278 30.2282 13.3962 30.4833 14.6744 30.4536C17.4605 30.4536 21.0157 29.5014 25.5386 27.5971C28.3062 26.4333 30.7523 25.807 32.8769 25.7181H33.2973C34.4745 25.6832 35.6473 25.8752 36.7481 26.2831C37.9645 26.7334 38.995 27.561 39.6809 28.6381H39.645L40.0393 29.3808L40.5248 28.5238H40.476C41.1515 27.5042 42.1369 26.7154 43.2947 26.2672C44.7367 25.7255 46.291 25.5285 47.8274 25.6927H47.961C50.2332 25.9447 52.4527 26.5323 54.5433 27.4352C59.0565 29.2729 62.5953 30.1774 65.3521 30.1774C66.6457 30.2107 67.9296 29.951 69.1027 29.4189C71.1491 28.4286 72.4949 26.5148 73.3389 23.3885C74.0678 23.1157 74.8393 22.9665 75.6199 22.9473L75.584 22.979C75.8074 22.9988 76.0268 23.049 76.2358 23.1282C76.6016 23.4009 77.0283 23.5859 77.4812 23.668C77.9341 23.7502 78.4005 23.7273 78.8426 23.6011C79.5269 23.4424 80.1884 22.887 79.9506 21.9919ZM11.1747 29.2919C9.29124 28.4127 8.00735 26.7084 7.15686 23.9566C8.24096 24.4345 9.18026 25.1765 9.88405 26.1111C10.5878 27.0457 11.0324 28.1412 11.1747 29.2919ZM25.3594 27.1686C19.0018 29.8696 14.6223 30.6123 11.657 29.5014C11.539 28.1199 11.0101 26.8019 10.1352 25.7086H29.7813C28.2661 26.0745 26.7865 26.5683 25.3594 27.1844V27.1686ZM54.716 27.0194C53.3883 26.4738 52.0187 26.0302 50.62 25.6927L69.7121 25.6515C68.9681 26.708 68.5302 27.9404 68.4445 29.2189C65.5345 30.3583 61.1517 29.6569 54.716 27.0353V27.0194ZM68.9202 29.0031C69.0385 27.8557 69.4572 26.7571 70.1361 25.8124C70.8151 24.8677 71.7316 24.1085 72.7979 23.6075C71.9931 26.4005 70.7548 28.1207 68.9202 29.019V29.0031Z" fill="#BF936A"/>
</svg>
